<?xml version="1.0" encoding="UTF-8"?>
<svg id="Layer_2" data-name="Layer 2" xmlns="http://www.w3.org/2000/svg" viewBox="0 0 231.57 133.54">
  <defs>
    <style>
      .cls-1 {
        fill: #333;
        stroke-width: 0px;
      }
    </style>
  </defs>
  <g id="Layer_1-2" data-name="Layer 1">
    <g>
      <g>
        <g>
          <path class="cls-1" d="M15.77,40.27c-.85,2.21-1.55,3.86-2.11,4.94-.56,1.08-1.37,2.21-2.42,3.4-1.05,1.19-2.79,1.78-5.22,1.78-1.67,0-3.09-.5-4.26-1.52-1.17-1.01-1.76-2.35-1.76-4.01s.53-2.95,1.6-4.01c1.06-1.07,2.4-1.6,4.01-1.6,1.42,0,2.66.44,3.73,1.31,1.07.87,1.6,2.01,1.6,3.4,0,.57-.05,1.06-.14,1.47s-.23.79-.41,1.13c-.18.34-.41.66-.7.94-.29.29-.43.53-.43.72,0,.22.14.33.41.33.19,0,.47-.14.84-.43.37-.29.79-.77,1.27-1.45.48-.68.96-1.56,1.43-2.62.48-1.06,1.29-3.07,2.44-6.02,1.15-2.95,2.24-6,3.3-9.15,1.05-3.15,1.63-4.96,1.74-5.41.11-.45.16-.8.16-1.04,0-.71-.31-1.17-.92-1.39-.61-.22-1.86-.33-3.75-.33v-.66h15.4v18.47l12.7-18.47h15.28v.66l-2.13.12c-1.31.11-2.17.5-2.58,1.17-.41.67-1.32,2.7-2.72,6.1-1.41,3.4-2.59,6.29-3.56,8.68-.97,2.39-1.81,4.53-2.52,6.43-.71,1.9-1.16,3.13-1.35,3.71-.19.57-.29.94-.29,1.11,0,.55.3.89.9,1.02.6.14,1.65.2,3.15.2v.66h-19.46v-.66l2.25-.16c1.01-.11,1.75-.43,2.23-.96s1.11-1.7,1.9-3.5c.79-1.8,1.71-4.02,2.76-6.66,1.05-2.63,2.21-5.58,3.48-8.83,1.27-3.25,2.21-5.64,2.81-7.17l-.33-.16-19.21,28.1h-2.79v-27.28h-.16c-.93,2.84-1.76,5.34-2.48,7.5-.72,2.16-1.29,3.79-1.7,4.89-.41,1.11-1.08,2.86-2.01,5.26Z"/>
          <path class="cls-1" d="M74.95,38.18c0,3.09-1.32,5.88-3.95,8.38-2.64,2.5-5.85,3.75-9.65,3.75-1.15,0-2.18-.22-3.11-.66-.93-.44-1.92-1.21-2.97-2.33-1.05-1.12-1.58-2.83-1.58-5.12,0-3.03,1.3-5.81,3.91-8.34,2.61-2.52,5.84-3.79,9.69-3.79,1.2,0,2.24.21,3.11.64s1.71,1.06,2.5,1.9c.79.85,1.33,1.74,1.62,2.68.29.94.43,1.9.43,2.89ZM69.3,32.16c0-.44-.1-.78-.31-1.02-.21-.25-.54-.37-1-.37-.49,0-1.02.33-1.6,1-.57.67-1.4,2.08-2.48,4.22-1.08,2.14-2.11,4.45-3.09,6.92-.98,2.47-1.47,4.21-1.47,5.22,0,.52.11.91.33,1.17.22.26.55.39.98.39.46,0,.96-.3,1.48-.9.52-.6,1.28-1.86,2.27-3.77,1-1.91,2.06-4.25,3.19-7.02,1.13-2.77,1.7-4.72,1.7-5.84Z"/>
          <path class="cls-1" d="M97.6,38.18c0,3.09-1.32,5.88-3.95,8.38-2.64,2.5-5.85,3.75-9.65,3.75-1.15,0-2.18-.22-3.11-.66-.93-.44-1.92-1.21-2.97-2.33-1.05-1.12-1.58-2.83-1.58-5.12,0-3.03,1.3-5.81,3.91-8.34,2.61-2.52,5.84-3.79,9.69-3.79,1.2,0,2.24.21,3.11.64s1.71,1.06,2.5,1.9c.79.85,1.33,1.74,1.62,2.68.29.94.43,1.9.43,2.89ZM91.95,32.16c0-.44-.1-.78-.31-1.02-.21-.25-.54-.37-1-.37-.49,0-1.02.33-1.6,1-.57.67-1.4,2.08-2.48,4.22-1.08,2.14-2.11,4.45-3.09,6.92-.98,2.47-1.47,4.21-1.47,5.22,0,.52.11.91.33,1.17.22.26.55.39.98.39.46,0,.96-.3,1.48-.9.52-.6,1.28-1.86,2.27-3.77,1-1.91,2.06-4.25,3.19-7.02,1.13-2.77,1.7-4.72,1.7-5.84Z"/>
          <path class="cls-1" d="M119.48,30.06c1.28,0,2.38.4,3.3,1.21.91.81,1.37,2.01,1.37,3.62,0,.74-.15,1.52-.45,2.36s-.67,1.73-1.11,2.68c-.44.96-1.21,2.51-2.33,4.67-1.12,2.16-1.68,3.43-1.68,3.81,0,.22.05.38.16.49.11.11.27.16.49.16.27,0,.64-.16,1.11-.49.46-.33,1.1-.94,1.9-1.84.8-.9,1.66-2.25,2.56-4.05l.53.29c-1.26,2.24-2.46,4.03-3.62,5.35-1.16,1.33-2.79,1.99-4.89,1.99-1.45,0-2.54-.44-3.28-1.31-.74-.87-1.11-1.95-1.11-3.24,0-.87.1-1.58.29-2.13.19-.55.77-1.8,1.74-3.77.97-1.97,1.77-3.58,2.4-4.83.63-1.26.94-2.24.94-2.95,0-.27-.06-.47-.16-.59-.11-.12-.29-.18-.53-.18-.33,0-.74.21-1.25.61s-1.1,1.06-1.78,1.96c-.68.9-1.39,2.13-2.13,3.68l-5.94,12.32h-7.99l6.96-15.56c.16-.41.35-.87.57-1.37.22-.5.33-.87.33-1.08,0-.19-.04-.33-.12-.41-.08-.08-.21-.12-.37-.12-.38,0-.82.17-1.31.51-.49.34-.98.78-1.45,1.33s-1,1.23-1.56,2.07-1.11,1.7-1.66,2.6l-.53-.25c1.31-2.3,2.6-4.13,3.87-5.5,1.27-1.37,2.83-2.05,4.69-2.05,1.31,0,2.34.4,3.09,1.21.75.81,1.13,1.93,1.13,3.38,0,.66-.06,1.25-.18,1.79s-.23.96-.31,1.29c1.23-2.46,2.41-4.36,3.54-5.68s2.72-1.99,4.77-1.99Z"/>
        </g>
        <path class="cls-1" d="M74.61,84.15c-.44-.87-.75-1.62-.94-2.25-.19-.63-.29-1.47-.29-2.54,0-2.48,1.05-4.74,3.16-6.76,2.11-2.02,4.53-3.03,7.27-3.03,1.92,0,3.41.37,4.48,1.11,1.07.74,1.6,1.73,1.6,2.99,0,1.72-.65,2.99-1.94,3.81s-2.68,1.56-4.16,2.21c.6.68,1.26,1.46,1.99,2.33.72.87,1.43,1.82,2.11,2.83.55-1.36,1.46-2.55,2.74-3.54,1.28-1,2.8-1.49,4.55-1.49,1.47,0,2.71.42,3.71,1.25,1,.83,1.49,1.92,1.49,3.26s-.42,2.36-1.27,3.24c-.85.87-1.91,1.31-3.2,1.31s-2.32-.32-3.19-.96c-.87-.64-1.31-1.56-1.31-2.76,0-.87.27-1.68.82-2.42.27-.3.51-.55.7-.76.19-.21.29-.42.29-.64,0-.19-.1-.29-.29-.29-.63,0-1.46.47-2.5,1.41-1.04.94-1.69,2-1.97,3.17,1.34,2.29,2.22,3.95,2.66,4.96.44,1.01.66,2.39.66,4.14,0,3.33-1.17,6.17-3.52,8.52-2.35,2.35-5.18,3.52-8.48,3.52-.6,0-1.25-.08-1.95-.22-.7-.15-1.36-.4-1.99-.76l.21-.49c.49.27,1.09.47,1.8.59.71.12,1.35.18,1.93.18,1.45,0,2.64-.42,3.58-1.27.94-.85,1.41-2.05,1.41-3.6,0-1.17-.21-2.28-.63-3.32-.42-1.04-1.07-2.17-1.95-3.4-.76,1.53-1.97,2.89-3.62,4.1-1.65,1.2-3.54,1.8-5.67,1.8-1.86,0-3.49-.64-4.89-1.9-1.41-1.27-2.11-2.87-2.11-4.81,0-2.21.59-3.96,1.76-5.24,1.17-1.28,3.49-2.7,6.96-4.26ZM81.86,94.02c-1.91-2.46-3.44-4.43-4.59-5.92-1.15-1.49-1.94-2.63-2.38-3.42-.63.33-1.13.74-1.52,1.25-.38.51-.57,1.1-.57,1.78,0,1.75.73,3.45,2.19,5.1,1.46,1.65,2.87,2.48,4.24,2.48.68,0,1.21-.1,1.58-.29.37-.19.72-.52,1.04-.98ZM83.46,79.28c1.04-.55,1.86-1.21,2.48-2.01.61-.79.92-1.82.92-3.07,0-1.17-.24-2.13-.72-2.87s-1.36-1.11-2.64-1.11c-.82,0-1.62.27-2.42.8-.79.53-1.19,1.33-1.19,2.4,0,.93.38,1.89,1.13,2.89.75,1,1.56,1.99,2.44,2.97Z"/>
        <g>
          <path class="cls-1" d="M122.43,109.61c-.85,2.21-1.55,3.86-2.11,4.94-.56,1.08-1.37,2.21-2.42,3.4-1.05,1.19-2.79,1.78-5.22,1.78-1.67,0-3.09-.5-4.26-1.52-1.17-1.01-1.76-2.35-1.76-4.01s.53-2.95,1.6-4.01c1.06-1.07,2.4-1.6,4.01-1.6,1.42,0,2.66.44,3.73,1.31,1.07.87,1.6,2.01,1.6,3.4,0,.57-.05,1.06-.14,1.47s-.23.79-.41,1.13c-.18.34-.41.66-.7.94-.29.29-.43.53-.43.72,0,.22.14.33.41.33.19,0,.47-.14.84-.43.37-.29.79-.77,1.27-1.45.48-.68.96-1.56,1.43-2.62.48-1.06,1.29-3.07,2.44-6.02,1.15-2.95,2.24-6,3.3-9.15,1.05-3.15,1.63-4.96,1.74-5.41.11-.45.16-.8.16-1.04,0-.71-.31-1.17-.92-1.39-.61-.22-1.86-.33-3.75-.33v-.66h15.4v18.47l12.7-18.47h15.28v.66l-2.13.12c-1.31.11-2.17.5-2.58,1.17-.41.67-1.32,2.7-2.72,6.1-1.41,3.4-2.59,6.29-3.56,8.68-.97,2.39-1.81,4.53-2.52,6.43-.71,1.9-1.16,3.13-1.35,3.71-.19.57-.29.94-.29,1.11,0,.55.3.89.9,1.02.6.14,1.65.2,3.15.2v.66h-19.46v-.66l2.25-.16c1.01-.11,1.75-.43,2.23-.96s1.11-1.7,1.9-3.5c.79-1.8,1.71-4.02,2.76-6.66,1.05-2.63,2.21-5.58,3.48-8.83,1.27-3.25,2.21-5.64,2.81-7.17l-.33-.16-19.21,28.1h-2.79v-27.28h-.16c-.93,2.84-1.76,5.34-2.48,7.5-.72,2.16-1.29,3.79-1.7,4.89-.41,1.11-1.08,2.86-2.01,5.26Z"/>
          <path class="cls-1" d="M187.15,99.82l-7.09,15.56c-.08.16-.22.52-.41,1.06-.19.55-.29.89-.29,1.02,0,.22.05.39.14.51s.24.18.43.18c.38,0,.91-.27,1.6-.82.68-.55,1.41-1.32,2.19-2.31.78-1,1.48-2.11,2.11-3.34l.53.25c-.76,1.42-1.55,2.68-2.36,3.79-.81,1.11-1.81,2.03-3.01,2.79-1.2.75-2.65,1.13-4.34,1.13-1.37,0-2.39-.38-3.07-1.13-.68-.75-1.02-1.88-1.02-3.38-1.06,1.58-2.08,2.73-3.05,3.44-.97.71-2.22,1.07-3.75,1.07-1.64,0-2.98-.53-4.03-1.58-1.05-1.05-1.58-2.42-1.58-4.12,0-3.22,1.48-6.45,4.44-9.69,2.96-3.24,6.25-4.85,9.85-4.85.85,0,1.61.21,2.29.61.68.41,1.02,1.05,1.02,1.92l-.12.98,1.43-3.11h8.07ZM177.24,102.03c0-.44-.09-.76-.27-.96-.18-.2-.46-.31-.84-.31-.52,0-1.11.41-1.78,1.23s-1.54,2.25-2.6,4.3c-1.07,2.05-2.13,4.31-3.19,6.8-1.07,2.48-1.6,4.1-1.6,4.83,0,.25.05.44.16.57.11.14.27.2.49.2.85,0,1.65-.42,2.42-1.25.76-.83,1.35-1.54,1.76-2.13.41-.59.95-1.58,1.62-2.99.67-1.41,1.48-3.22,2.42-5.43s1.41-3.84,1.41-4.87Z"/>
          <path class="cls-1" d="M202.26,100.11c-.6,0-1.27.37-2.01,1.11s-1.5,1.83-2.29,3.28c-.79,1.45-1.43,3.07-1.93,4.85-.49,1.79-.74,3.38-.74,4.77,0,1.58.24,2.68.72,3.3.48.61,1.15.92,2.03.92.68,0,1.3-.12,1.85-.35.55-.23,1.16-.59,1.83-1.09.67-.49,1.23-1,1.68-1.52s.92-1.13,1.42-1.84l.57.41c-1.56,2.16-3.11,3.65-4.66,4.46s-3.19,1.23-4.94,1.23c-2.05,0-3.97-.62-5.76-1.86-1.79-1.24-2.68-3.05-2.68-5.43,0-3.25,1.44-6.22,4.33-8.91,2.89-2.69,6.34-4.03,10.36-4.03,2.38,0,4.04.44,4.98,1.31.94.87,1.42,1.84,1.42,2.91,0,1.17-.35,2.12-1.05,2.85-.7.72-1.6,1.09-2.7,1.09-.99,0-1.81-.29-2.47-.86-.66-.57-.99-1.28-.99-2.13,0-.71.32-1.47.96-2.29.64-.82.96-1.38.96-1.68,0-.16-.07-.29-.22-.37-.15-.08-.38-.12-.68-.12Z"/>
          <path class="cls-1" d="M219.57,99.41c1.72,0,3.2.43,4.41,1.29s1.83,1.93,1.83,3.22c0,.96-.3,1.77-.89,2.44-.59.67-1.34,1-2.25,1-.8,0-1.54-.31-2.23-.94-.69-.63-1.03-1.38-1.03-2.25,0-.49.13-.93.39-1.33.26-.4.55-.68.86-.84.31-.16.71-.29,1.19-.39.48-.1.72-.28.72-.55,0-.25-.23-.48-.68-.7-.45-.22-1.07-.33-1.86-.33-1.09,0-1.99.27-2.7.8-.71.53-1.07,1.22-1.07,2.07,0,.66.12,1.18.37,1.56.25.38.68.86,1.31,1.44l3.28,2.87c.74.68,1.29,1.38,1.64,2.09.35.71.53,1.53.53,2.46,0,2.02-.95,3.6-2.83,4.72-1.89,1.12-3.99,1.68-6.28,1.68-2.05,0-3.91-.53-5.57-1.58-1.66-1.06-2.48-2.43-2.48-4.14,0-.9.31-1.68.93-2.32.62-.64,1.41-.97,2.37-.97.8,0,1.54.33,2.23.98.69.66,1.03,1.42,1.03,2.29,0,.63-.18,1.17-.53,1.64-.36.47-.75.74-1.19.84-.44.1-.8.18-1.09.25-.29.07-.43.22-.43.47,0,.39.38.8,1.13,1.23.75.43,1.64.65,2.68.65.93,0,1.73-.26,2.42-.78.68-.52,1.02-1.19,1.02-2.01,0-.71-.12-1.26-.37-1.64-.25-.38-.62-.8-1.13-1.25s-1.13-1.01-1.88-1.66c-.75-.66-1.33-1.22-1.72-1.7s-.7-.96-.92-1.44c-.22-.48-.33-1.1-.33-1.87,0-1.83.83-3.51,2.48-5.03,1.66-1.52,3.87-2.28,6.63-2.28Z"/>
        </g>
        <g>
          <path class="cls-1" d="M181.75,130.28c-.06.18-.11.41-.15.69-.05.28-.07.52-.07.7,0,.52.07.88.22,1.1.14.21.35.32.63.32.21,0,.4-.03.57-.08.17-.05.36-.14.59-.27s.46-.32.7-.57.44-.5.59-.74l.19.14c-.39.55-.85,1.01-1.38,1.38s-1.17.56-1.92.56c-.69,0-1.33-.21-1.93-.62-.6-.41-.9-1.02-.9-1.82,0-1.11.5-2.13,1.51-3.06s2.2-1.39,3.56-1.39c.64,0,1.17.15,1.58.44.41.29.61.63.61,1.01,0,.73-.43,1.28-1.28,1.65-.86.37-1.9.55-3.13.55ZM181.79,130.11c.65-.07,1.24-.44,1.77-1.09.53-.65.79-1.23.79-1.73,0-.14-.02-.24-.06-.32-.04-.07-.12-.11-.25-.11-.2,0-.41.11-.61.33s-.42.53-.65.93c-.23.4-.43.76-.59,1.09-.16.33-.3.63-.4.89Z"/>
          <path class="cls-1" d="M190.07,126.64c.59,0,1.09.15,1.5.44.41.29.62.66.62,1.09,0,.32-.1.6-.3.83-.2.23-.45.34-.76.34-.27,0-.52-.11-.76-.32-.23-.21-.35-.47-.35-.77,0-.17.04-.32.13-.45.09-.13.19-.23.29-.28.11-.06.24-.1.4-.13.16-.03.24-.09.24-.19,0-.08-.08-.16-.23-.24s-.36-.11-.63-.11c-.37,0-.68.09-.92.27s-.36.42-.36.7c0,.22.04.4.13.53.08.13.23.29.45.49l1.11.98c.25.23.44.47.56.71.12.24.18.52.18.84,0,.69-.32,1.22-.96,1.6s-1.35.57-2.14.57c-.7,0-1.33-.18-1.89-.54-.56-.36-.84-.83-.84-1.41,0-.31.1-.57.31-.79s.48-.33.81-.33c.27,0,.52.11.76.33.23.22.35.48.35.78,0,.21-.06.4-.18.56-.12.16-.26.25-.4.29s-.27.06-.37.08c-.1.02-.15.08-.15.16,0,.13.13.27.38.42.25.15.56.22.91.22.31,0,.59-.09.82-.26.23-.18.35-.4.35-.68,0-.24-.04-.43-.13-.56-.08-.13-.21-.27-.38-.43-.17-.15-.38-.34-.64-.56-.25-.22-.45-.42-.58-.58-.14-.16-.24-.33-.31-.49-.07-.16-.11-.37-.11-.63,0-.62.28-1.19.84-1.71.56-.52,1.31-.77,2.25-.77Z"/>
          <path class="cls-1" d="M198.39,126.78l-.18.45h-1.56l-2.1,5.08c-.07.16-.11.27-.12.35-.02.07-.03.15-.03.22,0,.08.02.15.06.19.04.04.09.06.15.06.12,0,.26-.05.42-.16.16-.11.33-.25.51-.43s.36-.41.55-.67c.19-.27.35-.52.47-.75l.18.1c-.45.76-.89,1.34-1.31,1.73s-.94.58-1.56.58c-.54,0-.94-.16-1.21-.48-.27-.32-.4-.7-.4-1.15,0-.2.02-.38.07-.54.05-.15.13-.37.24-.66l1.45-3.46h-1.2l.18-.45h1.2l1.11-2.69h2.69l-1.13,2.69h1.54Z"/>
          <path class="cls-1" d="M197.12,132.13c0-.37.14-.69.4-.95.27-.26.59-.39.97-.39s.71.13.98.38c.27.26.41.57.41.95s-.14.7-.4.96c-.27.26-.6.39-.99.39s-.7-.13-.97-.39c-.27-.26-.4-.58-.4-.96Z"/>
          <path class="cls-1" d="M207.58,126.3c-.38,0-.69.1-.94.29s-.38.39-.38.59c0,.11.04.19.13.25.08.07.2.11.35.13.25,0,.45.08.59.23.14.15.22.34.22.58,0,.29-.11.54-.33.75-.22.21-.48.31-.78.31-.37,0-.67-.11-.9-.32-.23-.21-.34-.5-.34-.86,0-.4.14-.77.42-1.11.28-.33.6-.58.96-.74.36-.16.69-.26.99-.31.3-.05.59-.07.87-.07.89,0,1.6.17,2.13.51.53.34.79.79.79,1.34s-.17,1.01-.52,1.36c-.34.35-.74.63-1.19.83-.45.2-1.07.42-1.87.66-.8.24-1.25.44-1.35.59h.45c.17,0,.37,0,.62,0h1.77c.32,0,.57-.04.73-.11.17-.08.3-.19.41-.33.11-.15.19-.27.25-.37.06-.1.14-.24.24-.41h.13l-1.33,3.31h-6.2v-.1l2.97-2.24c.79-.6,1.4-1.16,1.81-1.68.41-.52.62-1.11.62-1.75,0-.41-.12-.73-.35-.96s-.56-.34-.97-.34Z"/>
          <path class="cls-1" d="M219.11,129.05c0,1.15-.47,2.17-1.4,3.08-.93.91-2.03,1.36-3.29,1.36-.85,0-1.51-.28-1.99-.85-.48-.56-.72-1.29-.72-2.19,0-1.2.48-2.24,1.45-3.12s2.05-1.32,3.24-1.32c.83,0,1.49.27,1.97.82.49.55.73,1.28.73,2.21ZM217.3,126.72c0-.17-.04-.3-.14-.39-.09-.09-.22-.13-.4-.13-.21,0-.4.08-.57.23-.18.16-.42.52-.74,1.1s-.72,1.5-1.2,2.78c-.48,1.28-.72,2.1-.72,2.47,0,.17.04.3.13.39.09.09.22.13.4.13.21,0,.4-.08.57-.23.17-.16.42-.53.75-1.12.33-.59.73-1.52,1.21-2.79.47-1.27.71-2.08.71-2.44Z"/>
          <path class="cls-1" d="M222.36,126.3c-.38,0-.69.1-.94.29s-.38.39-.38.59c0,.11.04.19.13.25.08.07.2.11.35.13.25,0,.45.08.59.23.14.15.22.34.22.58,0,.29-.11.54-.33.75-.22.21-.48.31-.78.31-.37,0-.67-.11-.9-.32-.23-.21-.34-.5-.34-.86,0-.4.14-.77.42-1.11.28-.33.6-.58.96-.74.36-.16.69-.26.99-.31.3-.05.59-.07.87-.07.89,0,1.6.17,2.13.51.53.34.79.79.79,1.34s-.17,1.01-.52,1.36c-.34.35-.74.63-1.19.83-.45.2-1.07.42-1.87.66-.8.24-1.25.44-1.35.59h.45c.17,0,.37,0,.62,0h1.77c.32,0,.57-.04.73-.11.17-.08.3-.19.41-.33.11-.15.19-.27.25-.37.06-.1.14-.24.24-.41h.13l-1.33,3.31h-6.2v-.1l2.97-2.24c.79-.6,1.4-1.16,1.81-1.68.41-.52.62-1.11.62-1.75,0-.41-.12-.73-.35-.96s-.56-.34-.97-.34Z"/>
          <path class="cls-1" d="M229.16,132.13c-.17.42-.25.69-.25.81,0,.09.07.16.22.21.15.05.44.07.86.07v.16h-4.92v-.16c.05,0,.13,0,.23,0,.1,0,.26-.02.47-.04.21-.02.38-.1.49-.23s.27-.42.46-.86c.19-.44.42-.99.69-1.64.27-.65.48-1.18.64-1.6.16-.41.33-.85.51-1.31s.27-.76.27-.88c0-.14-.08-.23-.23-.29s-.44-.08-.86-.08v-.16h3.83l-2.42,6Z"/>
        </g>
      </g>
      <g>
        <path class="cls-1" d="M5.71,7.25c-.2.5-.3.83-.3.97,0,.22.4.34,1.19.34v.19H.9v-.19l.66-.05c.3-.03.51-.13.65-.28.14-.16.34-.53.59-1.12.26-.59.6-1.42,1.03-2.5.43-1.07.78-1.96,1.06-2.66.28-.7.51-1.28.68-1.73l-.34.04c-.46.04-1.09.44-1.9,1.19-.81.76-1.56,1.56-2.25,2.41h-.2L2.44,0h9.48l-1.55,3.85h-.2c0-1.17-.12-2.06-.37-2.68-.24-.62-.54-.92-.88-.92l-.37-.02-2.83,7.02Z"/>
        <path class="cls-1" d="M16.15,5.32c0,.9-.39,1.72-1.16,2.45-.77.73-1.71,1.1-2.83,1.1-.34,0-.64-.06-.91-.19-.27-.13-.56-.36-.87-.68s-.46-.83-.46-1.5c0-.89.38-1.7,1.15-2.44.76-.74,1.71-1.11,2.84-1.11.35,0,.66.06.91.19s.5.31.73.56c.23.25.39.51.47.79.08.28.13.56.13.85ZM14.5,3.55c0-.13-.03-.23-.09-.3-.06-.07-.16-.11-.29-.11-.14,0-.3.1-.47.29-.17.2-.41.61-.73,1.24-.32.63-.62,1.3-.91,2.03s-.43,1.23-.43,1.53c0,.15.03.27.1.34.06.08.16.11.29.11.14,0,.28-.09.43-.26.15-.18.37-.54.67-1.1.29-.56.6-1.25.94-2.06.33-.81.5-1.38.5-1.71Z"/>
        <path class="cls-1" d="M24.73,3.06l-.16.38h-1.34l-1.81,4.38c-.06.14-.09.24-.11.3-.02.06-.02.13-.02.19,0,.07.02.13.05.16.03.04.08.05.13.05.1,0,.23-.05.37-.14.14-.09.29-.22.44-.37.15-.16.31-.35.47-.58.16-.23.3-.45.4-.65l.16.08c-.39.66-.77,1.15-1.13,1.49-.36.34-.81.5-1.35.5-.46,0-.81-.14-1.04-.41-.23-.28-.35-.61-.35-.99,0-.18.02-.33.06-.46s.11-.32.2-.57l1.25-2.99h-1.03l.16-.38h1.03l.96-2.32h2.32l-.97,2.32h1.33Z"/>
        <path class="cls-1" d="M30.91,6.95c-.37.63-.71,1.11-1.02,1.43-.31.32-.77.49-1.37.49-.42,0-.75-.13-.97-.38-.22-.26-.33-.58-.33-.98,0-.31.06-.62.19-.94.12-.24.28-.55.47-.92.19-.37.4-.77.62-1.19.22-.42.34-.74.34-.96,0-.09-.02-.15-.05-.19-.04-.04-.09-.06-.16-.06-.14,0-.28.04-.42.13-.14.09-.32.27-.56.56-.24.28-.47.69-.68,1.21l-1.48,3.61h-2.33c.22-.53.49-1.19.82-1.99s.71-1.73,1.13-2.79c.43-1.06.73-1.82.91-2.27s.29-.75.34-.88.07-.24.07-.32c0-.18-.13-.28-.4-.28l-.53-.02v-.19h3.54l-1.67,4.01c.31-.36.57-.63.79-.8s.55-.26,1-.26c.39,0,.74.12,1.05.36.31.24.46.6.46,1.08,0,.27-.03.49-.09.65-.06.16-.19.46-.4.9-.21.44-.45.92-.73,1.44-.28.52-.41.84-.41.96,0,.06.02.1.05.13.04.03.09.05.15.05.22,0,.44-.14.68-.43.24-.28.41-.52.53-.7.12-.18.22-.35.3-.5l.16.07Z"/>
        <path class="cls-1" d="M33.79,6.08c-.05.15-.09.35-.13.59-.04.24-.06.45-.06.6,0,.45.06.76.19.95s.31.28.55.28c.18,0,.35-.02.49-.07.14-.04.31-.12.5-.23.19-.11.4-.28.61-.49.21-.21.38-.43.51-.63l.17.12c-.34.47-.73.87-1.19,1.19s-1.01.48-1.66.48c-.59,0-1.15-.18-1.66-.53-.52-.36-.77-.88-.77-1.57,0-.96.43-1.84,1.3-2.63.87-.8,1.89-1.19,3.07-1.19.55,0,1,.13,1.36.38.35.25.53.54.53.87,0,.63-.37,1.11-1.11,1.42-.74.32-1.64.47-2.7.47ZM33.83,5.94c.56-.06,1.07-.38,1.52-.94.46-.56.68-1.06.68-1.49,0-.12-.02-.21-.05-.28-.03-.06-.1-.09-.22-.09-.18,0-.35.09-.53.29s-.36.46-.56.8c-.2.34-.37.66-.51.94-.14.28-.25.54-.34.77Z"/>
      </g>
    </g>
  </g>
</svg>